# xmcd
#
# Track frame offsets:
#	150
#	23583
#	44819
#	67276
#	90037
#	116566
#	136625
#	167165
#
# Disc length: 2805 seconds
#
# Revision: 1
# Processed by: cddbd v1.4PL0 Copyright (c) Steve Scherf et al.
# Submitted via: audiograbber 1.81.03
#
DISCID=630af308
DTITLE=David Moore Band - DMB
DYEAR=2002
DGENRE=Blues
TTITLE0=Hard Bargain
TTITLE1=Phone Booth
TTITLE2=Believe To My Soul
TTITLE3=Soulville
TTITLE4=Magenta Blue
TTITLE5=Mary Had A Little Lamb
TTITLE6=Ain't No Sunshine live
TTITLE7=Little Wing live
EXTD=Swamp Ash Music 07940 910175\ndavidmooreband.com
EXTT0=
EXTT1=
EXTT2=
EXTT3=
EXTT4=
EXTT5=
EXTT6=
EXTT7=
PLAYORDER=
